{
  "accessors": [
    {
      "name": "Text-Mesh_0_positions",
      "componentType": 5126,
      "count": 2712,
      "min": [
        0.0884770005941391,
        -0.051669999957084656,
        -0.27122101187705994
      ],
      "max": [
        2.4224770069122314,
        1.6487369537353516,
        0.12877899408340454
      ],
      "type": "VEC3",
      "bufferView": 0,
      "byteOffset": 0
    },
    {
      "name": "Text-Mesh_0_normals",
      "componentType": 5126,
      "count": 2712,
      "min": [
        -0.9999999403953552,
        -0.9999985694885254,
        -1
      ],
      "max": [
        0.9999991655349731,
        0.9999979734420776,
        1
      ],
      "type": "VEC3",
      "bufferView": 1,
      "byteOffset": 0
    },
    {
      "name": "Text-Mesh_0_indices",
      "componentType": 5123,
      "count": 8040,
      "min": [
        0
      ],
      "max": [
        2711
      ],
      "type": "SCALAR",
      "bufferView": 2,
      "byteOffset": 0
    }
  ],
  "asset": {
    "generator": "obj2gltf",
    "version": "2.0"
  },
  "buffers": [
    {
      "name": "profProbe",
      "byteLength": 81168,
      "uri": "data:application/octet-stream;base64,"
    }
  ],
  "bufferViews": [
    {
      "name": "bufferView_0",
      "buffer": 0,
      "byteLength": 32544,
      "byteOffset": 0,
      "byteStride": 12,
      "target": 34962
    },
    {
      "name": "bufferView_1",
      "buffer": 0,
      "byteLength": 32544,
      "byteOffset": 32544,
      "byteStride": 12,
      "target": 34962
    },
    {
      "name": "bufferView_2",
      "buffer": 0,
      "byteLength": 16080,
      "byteOffset": 65088,
      "target": 34963
    }
  ],
  "materials": [
    {
      "name": "None",
      "pbrMetallicRoughness": {
        "baseColorFactor": [
          0.8,
          0.8,
          0.8,
          1
        ],
        "metallicFactor": 0,
        "roughnessFactor": 1
      },
      "emissiveFactor": [
        0,
        0,
        0
      ],
      "alphaMode": "OPAQUE",
      "doubleSided": false
    }
  ],
  "meshes": [
    {
      "name": "Text-Mesh",
      "primitives": [
        {
          "attributes": {
            "POSITION": 0,
            "NORMAL": 1
          },
          "indices": 2,
          "material": 0,
          "mode": 4
        }
      ]
    }
  ],
  "nodes": [
    {
      "name": "Text",
      "mesh": 0
    }
  ],
  "scene": 0,
  "scenes": [
    {
      "nodes": [
        0
      ]
    }
  ]
}
